# xmcd
#
# Track frame offsets: 
#        150
#        20147
#        39250
#        58170
#        76955
#        94581
#        112992
#        125676
#        143717
#        163428
#        180293
#        193435
#        211214
#        235437
#        253725
#        271289
#        290762
#        308779
#        329780
#
# Disc length: 4668 seconds
#
# Revision: 0
# Processed by: cddbd v1.5.2PL0 Copyright (c) Steve Scherf et al.
# Submitted via: ExactAudioCopy v0.99pb5
#
DISCID=25123a13
DTITLE=Various Artist - Forever Love No.1 CD 1
DYEAR=2003
DGENRE=Pop
TTITLE0=Richard Marx - Right Here Waiting
TTITLE1=MLT - That's Why (You Go Away)
TTITLE2=Savege Garden - I Know I Love You
TTITLE3=Bryan Adams - Everything (You Go Away)
TTITLE4=Air Supply - All Out Of Love
TTITLE5=Trademark - Only Love
TTITLE6=Caron Nightingale - Promises Don't Come Easy
TTITLE7=Lauren Christy - The Colour Of Night
TTITLE8=Rod Stewart - Sailing
TTITLE9=All-4-One - I Swear
TTITLE10=Bobby Vinton - Sealed With A Kiss
TTITLE11=Carpenters - Yesterday Once More
TTITLE12=Phil Collins - Another Day In Paradise
TTITLE13=Lionel Richie - Say You Say Me
TTITLE14=Westlife - My Love
TTITLE15=Trisha Yearwood - How Do I Live
TTITLE16=Bee Gees - How Deep Is Your Love
TTITLE17=Celine Dion - My Heart Will Go On
TTITLE18=Whitney Houston and Mariah Carey - When You Believe
EXTD=
EXTT0=
EXTT1=
EXTT2=
EXTT3=
EXTT4=
EXTT5=
EXTT6=
EXTT7=
EXTT8=
EXTT9=
EXTT10=
EXTT11=
EXTT12=
EXTT13=
EXTT14=
EXTT15=
EXTT16=
EXTT17=
EXTT18=
PLAYORDER=
